<svg width="709" height="517" viewBox="0 0 709 517" fill="none" xmlns="http://www.w3.org/2000/svg">
<g id="undraw_shopping_re_3wst 1" clip-path="url(#clip0_0_1)">
<g id="scrin_2">
<path id="Vector" d="M315.979 303.416C315.562 303.435 315.148 303.325 314.795 303.102C314.441 302.878 314.165 302.551 314.004 302.165C313.842 301.779 313.803 301.353 313.892 300.944C313.981 300.535 314.194 300.164 314.501 299.88L314.641 299.324L314.585 299.191C314.164 298.197 313.459 297.349 312.558 296.754C311.657 296.16 310.6 295.844 309.52 295.848C308.44 295.852 307.386 296.175 306.489 296.777C305.592 297.378 304.893 298.231 304.48 299.228C302.827 303.209 300.723 307.197 300.205 311.406C299.976 313.266 300.073 315.152 300.489 316.98C296.607 308.511 294.591 299.308 294.578 289.992C294.577 287.655 294.707 285.319 294.967 282.996C295.182 281.091 295.48 279.2 295.862 277.323C297.942 267.137 302.409 257.589 308.896 249.465C312.036 247.752 314.575 245.117 316.172 241.917C316.75 240.766 317.159 239.538 317.385 238.271C317.031 238.317 316.671 238.346 316.317 238.369C316.206 238.375 316.09 238.381 315.98 238.387L315.938 238.389C315.549 238.406 315.163 238.311 314.827 238.114C314.491 237.917 314.218 237.627 314.043 237.279C313.868 236.931 313.796 236.54 313.838 236.153C313.88 235.765 314.033 235.398 314.278 235.096C314.431 234.907 314.584 234.719 314.737 234.531C314.97 234.241 315.208 233.957 315.44 233.666C315.467 233.639 315.492 233.61 315.515 233.579C315.783 233.248 316.05 232.923 316.317 232.592C315.829 231.835 315.173 231.201 314.401 230.74C311.724 229.172 308.031 230.258 306.098 232.679C305.192 233.942 304.576 235.39 304.294 236.918C304.012 238.447 304.071 240.019 304.466 241.522C305.129 244.096 306.224 246.539 307.706 248.745C307.561 248.931 307.41 249.111 307.265 249.297C304.611 252.709 302.299 256.372 300.36 260.236C300.831 255.908 300.269 251.53 298.718 247.462C297.147 243.671 294.201 240.478 291.607 237.2C290.921 236.32 289.989 235.663 288.93 235.312C287.87 234.961 286.73 234.931 285.654 235.228C284.578 235.525 283.614 236.134 282.884 236.978C282.154 237.823 281.691 238.864 281.553 239.972L281.538 240.117C281.923 240.334 282.3 240.565 282.669 240.809C283.133 241.119 283.492 241.561 283.7 242.079C283.907 242.596 283.954 243.164 283.833 243.708C283.713 244.253 283.431 244.748 283.024 245.129C282.617 245.51 282.104 245.76 281.553 245.845L281.497 245.853C281.634 247.242 281.877 248.618 282.223 249.97C283.225 253.744 284.996 257.27 287.425 260.327C289.854 263.385 292.888 265.907 296.338 267.737C296.564 267.853 296.785 267.969 297.011 268.08C295.063 273.6 293.841 279.35 293.376 285.185C293.113 288.627 293.129 292.086 293.423 295.526L293.405 295.404C292.662 291.578 290.622 288.127 287.628 285.632C283.182 281.98 276.901 280.635 272.105 277.699C271.595 277.372 271.002 277.197 270.397 277.196C269.791 277.194 269.197 277.366 268.686 277.691C268.175 278.016 267.767 278.48 267.511 279.029C267.255 279.578 267.161 280.188 267.24 280.789L267.26 280.917C267.975 281.208 268.671 281.544 269.344 281.922C269.73 282.139 270.107 282.37 270.476 282.614C270.94 282.923 271.299 283.366 271.507 283.883C271.714 284.401 271.761 284.969 271.64 285.513C271.52 286.057 271.238 286.553 270.831 286.934C270.424 287.315 269.911 287.565 269.36 287.649L269.304 287.658C269.263 287.664 269.228 287.67 269.188 287.676C270.409 290.593 272.124 293.277 274.257 295.613C276.891 298.439 280.075 300.698 283.613 302.251C287.152 303.803 290.97 304.617 294.834 304.641H294.84C295.888 309.199 297.408 313.636 299.374 317.879H315.574C315.632 317.699 315.684 317.514 315.736 317.334C314.237 317.428 312.731 317.338 311.254 317.067C312.456 315.592 313.657 314.105 314.859 312.631C314.886 312.603 314.911 312.574 314.935 312.544C315.545 311.789 316.16 311.04 316.77 310.285L316.77 310.284C316.802 307.97 316.537 305.662 315.98 303.416L315.979 303.416Z" fill="#F2F2F2"/>
<g id="Group" opacity="0.38">
<path id="Vector_2" opacity="0.38" d="M285.221 279.882C284.558 279.34 284.023 278.659 283.652 277.887C283.281 277.115 283.084 276.272 283.074 275.416C283.065 274.559 283.243 273.712 283.597 272.932C283.95 272.152 284.47 271.459 285.121 270.903L271.882 236.293L282.462 238.534L293.695 271.824C294.558 272.978 294.968 274.409 294.847 275.846C294.725 277.282 294.082 278.624 293.037 279.617C291.992 280.61 290.62 281.186 289.179 281.234C287.739 281.283 286.33 280.802 285.221 279.882V279.882Z" fill="#FFB8B8"/>
<path id="Vector_3" opacity="0.38" d="M290.667 241.977L278.787 192.537L273.677 178.157C273.672 178.151 273.668 178.144 273.667 178.137C273.255 176.974 272.616 175.905 271.787 174.991C270.958 174.078 269.955 173.339 268.837 172.817C267.719 172.281 266.505 171.976 265.267 171.917C264.028 171.859 262.791 172.049 261.627 172.477C261.427 172.546 261.23 172.627 261.037 172.717C260.627 172.904 260.23 173.118 259.847 173.357C258.756 174.045 257.818 174.949 257.091 176.013C256.363 177.078 255.862 178.281 255.617 179.547L254.717 184.267L254.337 186.277L268.367 235.317V235.337L273.247 252.417L275.507 260.297V260.307L278.127 269.477L278.187 269.667L284.477 269.247H284.487L285.437 269.177L292.637 268.697L293.677 268.627L290.667 241.977Z" fill="#2F2E41"/>
<path id="Vector_4" opacity="0.38" d="M242.437 159.432L268.898 212.946L285.638 269.849C250.371 276.727 206.118 291.438 202.933 270.339C204.896 211.513 211.079 192.749 223.844 167.247L242.437 159.432Z" fill="#2F2E41"/>
<path id="Vector_5" opacity="0.38" d="M277.817 318.007H256.087L247.277 288.237L241.077 317.627C241.057 317.757 241.047 317.877 241.027 318.007H217.867C218.617 308.807 219.987 292.807 220.637 290.537C221.557 287.317 220.637 287.317 218.797 285.477C218.387 285.067 218.247 283.427 218.287 281.137C218.397 273.247 220.547 257.617 220.547 257.617L223.097 252.897L223.977 251.257L269.397 249.657L269.787 249.647L270.627 253.307L271.657 257.817L273.467 265.727L275.137 272.037L275.227 272.357V274.227C274.943 274.878 274.813 275.587 274.847 276.297C274.847 276.937 276.287 296.877 277.817 318.007Z" fill="#2F2E41"/>
<path id="Vector_6" opacity="0.38" d="M239.336 167.368L242.454 159.907L252.106 160.076L262.17 174.312L272.733 218.735C272.733 218.735 276.527 251.185 272.733 252.898C268.939 254.611 222.998 253.7 222.998 253.7C225.125 236.175 226.71 218.348 228.381 207.698C233.903 172.501 236.509 179.908 239.336 167.368Z" fill="#556B2F"/>
<path id="Vector_7" opacity="0.38" d="M252.106 160.076C252.106 160.076 272.896 172.094 273.709 178.368C274.522 184.641 277.245 261.425 277.245 261.425L269.893 256.674L267.883 228.689C269.285 203.822 265.865 185.287 258.911 171.393L252.106 160.076Z" fill="#2F2E41"/>
<path id="Vector_8" opacity="0.38" d="M247.198 156.581C255.023 156.581 261.367 150.237 261.367 142.411C261.367 134.586 255.023 128.242 247.198 128.242C239.372 128.242 233.028 134.586 233.028 142.411C233.028 150.237 239.372 156.581 247.198 156.581Z" fill="#FFB8B8"/>
<path id="Vector_9" opacity="0.38" d="M229.739 141.57C230.372 144.441 231.513 147.175 233.109 149.644C233.533 150.486 234.166 151.204 234.947 151.731C235.343 151.985 235.815 152.092 236.281 152.034C236.748 151.976 237.179 151.755 237.5 151.412L237.845 151.131C237.169 150.715 236.565 150.191 236.058 149.58C235.806 149.274 235.632 148.912 235.549 148.524C235.465 148.137 235.476 147.735 235.579 147.353C235.701 146.975 235.965 146.66 236.315 146.473C236.665 146.286 237.074 146.242 237.456 146.35C238.285 146.676 238.79 147.876 239.658 147.691C240.36 147.538 240.507 146.612 240.507 145.885C240.481 142.08 242.319 136.674 243.743 136.84C245.181 136.919 246.62 136.726 247.987 136.272C249.356 135.817 250.799 135.633 252.238 135.73C252.34 135.742 252.442 135.762 252.551 135.781C252.781 135.058 253.099 134.366 253.495 133.719C253.451 134.5 253.489 135.283 253.61 136.055C254.755 136.527 255.938 136.901 257.146 137.172C258.461 137.357 261.353 141.289 261.487 140.887C261.717 140.164 262.034 139.472 262.431 138.825C262.387 139.606 262.425 140.389 262.546 141.161C262.553 141.193 262.553 141.219 262.559 141.251C263.197 140.402 263.587 139.368 263.37 140.159C265.508 135.321 264.678 131.855 261.314 127.777C260.659 126.9 259.791 126.204 258.793 125.753C258.293 125.534 257.745 125.447 257.202 125.5C256.659 125.554 256.138 125.747 255.691 126.06C254.319 124.802 252.636 123.934 250.815 123.546C248.995 123.157 247.104 123.263 245.338 123.851C241.834 125.07 239.134 125.785 238.598 129.462C237.136 129.302 235.659 129.559 234.336 130.202C233.014 130.846 231.9 131.851 231.124 133.1C229.614 135.649 229.119 138.673 229.739 141.57V141.57Z" fill="#2F2E41"/>
<path id="Vector_10" opacity="0.38" d="M190.034 276.386C189.715 275.591 189.575 274.736 189.623 273.881C189.67 273.026 189.905 272.193 190.31 271.438C190.714 270.684 191.28 270.027 191.966 269.515C192.652 269.003 193.442 268.647 194.28 268.473L199.389 231.772L207.573 238.841L201.345 273.418C201.544 274.846 201.212 276.297 200.413 277.496C199.613 278.696 198.402 279.56 197.007 279.926C195.613 280.292 194.133 280.133 192.848 279.481C191.563 278.828 190.561 277.727 190.034 276.386H190.034Z" fill="#FFB8B8"/>
<path id="Vector_11" opacity="0.38" d="M235.127 178.417L234.737 174.857C234.557 173.241 233.961 171.698 233.007 170.381C232.054 169.063 230.776 168.014 229.297 167.337C228.155 166.807 226.916 166.518 225.657 166.487H225.647C223.795 166.444 221.97 166.948 220.403 167.937C218.836 168.926 217.595 170.356 216.837 172.047L210.597 185.997L194.847 234.347L189.757 260.647L195.257 261.457L203.227 262.627L203.287 262.637L205.117 262.907L230.687 194.467L230.697 194.447L235.477 181.657L235.127 178.417Z" fill="#2F2E41"/>
</g>
<path id="Vector_12" d="M330.547 319.007H166.547C164.691 319.005 162.912 318.267 161.6 316.954C160.288 315.642 159.549 313.863 159.547 312.007V89.0069C159.549 87.151 160.287 85.3718 161.6 84.0594C162.912 82.7471 164.691 82.0089 166.547 82.0069H330.547C332.403 82.0089 334.182 82.7471 335.495 84.0594C336.807 85.3717 337.545 87.151 337.547 89.0069V312.007C337.545 313.863 336.807 315.642 335.495 316.954C334.182 318.267 332.403 319.005 330.547 319.007V319.007ZM166.547 84.0069C165.222 84.0084 163.951 84.5357 163.013 85.4731C162.076 86.4104 161.549 87.6813 161.547 89.0069V312.007C161.549 313.332 162.076 314.603 163.013 315.541C163.951 316.478 165.222 317.005 166.547 317.007H330.547C331.873 317.005 333.144 316.478 334.081 315.541C335.018 314.603 335.546 313.332 335.547 312.007V89.0069C335.546 87.6813 335.018 86.4104 334.081 85.4731C333.144 84.5357 331.873 84.0084 330.547 84.0069H166.547Z" fill="#E6E6E6"/>
<path id="Vector_13" d="M66 249.007H13C9.55219 249.007 6.24559 247.637 3.80762 245.199C1.36964 242.761 0 239.455 0 236.007C0 232.559 1.36964 229.252 3.80762 226.814C6.24559 224.376 9.55219 223.007 13 223.007H66C69.4478 223.007 72.7544 224.376 75.1924 226.814C77.6304 229.252 79 232.559 79 236.007C79 239.455 77.6304 242.761 75.1924 245.199C72.7544 247.637 69.4478 249.007 66 249.007Z" fill="#E6E6E6"/>
<path id="Vector_14" d="M92 300.007H39C35.5522 300.007 32.2456 298.637 29.8076 296.199C27.3696 293.761 26 290.455 26 287.007C26 283.559 27.3696 280.252 29.8076 277.814C32.2456 275.377 35.5522 274.007 39 274.007H92C95.4478 274.007 98.7544 275.377 101.192 277.814C103.63 280.252 105 283.559 105 287.007C105 290.455 103.63 293.761 101.192 296.199C98.7544 298.637 95.4478 300.007 92 300.007V300.007Z" fill="#E6E6E6"/>
<path id="Vector_15" d="M120.034 290.47L120.005 292.47L222.424 293.949L222.453 291.949L120.034 290.47Z" fill="#E6E6E6"/>
<path id="Vector_16" d="M226.736 297.526C225.797 297.527 224.878 297.264 224.082 296.768C223.286 296.271 222.645 295.561 222.233 294.718V294.718C221.758 293.742 221.612 292.638 221.819 291.573C222.026 290.508 222.574 289.539 223.381 288.812C224.187 288.086 225.208 287.641 226.289 287.546C227.37 287.451 228.453 287.71 229.374 288.284C230.294 288.859 231.003 289.717 231.393 290.73C231.783 291.743 231.833 292.855 231.535 293.899C231.237 294.943 230.608 295.861 229.742 296.515C228.876 297.17 227.821 297.525 226.736 297.526V297.526ZM226.725 289.525C226.217 289.526 225.717 289.656 225.272 289.903C224.827 290.15 224.453 290.505 224.183 290.937C223.914 291.368 223.758 291.861 223.732 292.369C223.705 292.877 223.808 293.384 224.031 293.841V293.841C224.266 294.321 224.626 294.73 225.072 295.025C225.518 295.32 226.035 295.49 226.57 295.517C227.104 295.545 227.636 295.429 228.11 295.182C228.584 294.934 228.984 294.565 229.267 294.111C229.55 293.657 229.707 293.136 229.721 292.601C229.735 292.067 229.605 291.538 229.346 291.07C229.087 290.602 228.707 290.212 228.246 289.941C227.785 289.669 227.26 289.526 226.725 289.525V289.525Z" fill="#E6E6E6"/>
<path id="Vector_17" d="M98.0338 237.47L98.0049 239.47L200.424 240.949L200.453 238.949L98.0338 237.47Z" fill="#E6E6E6"/>
<path id="Vector_18" d="M204.736 244.526C203.798 244.527 202.878 244.264 202.082 243.768C201.286 243.271 200.645 242.561 200.233 241.718V241.718C199.757 240.742 199.611 239.638 199.818 238.572C200.025 237.506 200.573 236.536 201.379 235.809C202.186 235.082 203.207 234.637 204.289 234.542C205.371 234.447 206.454 234.706 207.375 235.281C208.297 235.855 209.006 236.714 209.396 237.727C209.786 238.741 209.836 239.854 209.538 240.898C209.24 241.942 208.61 242.861 207.744 243.515C206.877 244.17 205.822 244.525 204.736 244.526V244.526ZM202.031 240.841C202.335 241.465 202.846 241.964 203.477 242.253C204.108 242.542 204.819 242.603 205.49 242.426C206.161 242.25 206.75 241.846 207.157 241.284C207.563 240.722 207.762 240.036 207.72 239.343C207.678 238.651 207.397 237.994 206.925 237.486C206.452 236.977 205.819 236.648 205.131 236.555C204.444 236.461 203.745 236.609 203.154 236.972C202.563 237.336 202.117 237.893 201.891 238.549C201.632 239.302 201.682 240.126 202.031 240.841V240.841Z" fill="#E6E6E6"/>
<path id="Vector_19" d="M106 199.007H53C49.5522 199.007 46.2456 197.637 43.8076 195.199C41.3696 192.761 40 189.455 40 186.007C40 182.559 41.3696 179.252 43.8076 176.814C46.2456 174.376 49.5522 173.007 53 173.007H106C109.448 173.007 112.754 174.376 115.192 176.814C117.63 179.252 119 182.559 119 186.007C119 189.455 117.63 192.761 115.192 195.199C112.754 197.637 109.448 199.007 106 199.007Z" fill="#E6E6E6"/>
<path id="Vector_20" d="M138.034 187.47L138.005 189.47L240.424 190.949L240.453 188.949L138.034 187.47Z" fill="#E6E6E6"/>
<path id="Vector_21" d="M244.736 194.526C243.798 194.527 242.878 194.264 242.082 193.768C241.286 193.271 240.645 192.561 240.233 191.718V191.718C239.757 190.742 239.611 189.638 239.818 188.572C240.025 187.506 240.573 186.536 241.379 185.809C242.186 185.082 243.207 184.637 244.289 184.542C245.371 184.447 246.454 184.706 247.375 185.281C248.297 185.855 249.006 186.714 249.396 187.727C249.786 188.741 249.836 189.854 249.538 190.898C249.24 191.942 248.61 192.861 247.744 193.515C246.877 194.17 245.822 194.525 244.736 194.526ZM242.031 190.841C242.335 191.465 242.846 191.964 243.477 192.253C244.108 192.542 244.819 192.603 245.49 192.426C246.161 192.25 246.75 191.846 247.157 191.284C247.563 190.722 247.762 190.036 247.72 189.343C247.678 188.651 247.397 187.994 246.925 187.486C246.452 186.977 245.819 186.648 245.131 186.555C244.444 186.461 243.745 186.609 243.154 186.972C242.563 187.336 242.117 187.893 241.891 188.549C241.632 189.302 241.683 190.126 242.031 190.841V190.841Z" fill="#E6E6E6"/>
</g>
<g id="scrin_1">
<g id="scrin_1_2">
<path id="Vector_22" d="M529.115 336.416C529.533 336.435 529.947 336.325 530.3 336.102C530.653 335.878 530.929 335.551 531.091 335.165C531.252 334.779 531.291 334.353 531.202 333.944C531.113 333.535 530.901 333.164 530.594 332.88L530.454 332.324L530.509 332.191C530.93 331.197 531.636 330.349 532.537 329.754C533.438 329.16 534.495 328.844 535.574 328.848C536.654 328.852 537.709 329.175 538.605 329.777C539.502 330.378 540.201 331.231 540.615 332.228C542.268 336.209 544.372 340.197 544.89 344.406C545.118 346.266 545.022 348.152 544.605 349.98C548.487 341.511 550.503 332.308 550.516 322.992C550.517 320.655 550.387 318.319 550.127 315.996C549.912 314.091 549.614 312.2 549.233 310.323C547.152 300.137 542.685 290.589 536.198 282.465C533.058 280.752 530.519 278.117 528.923 274.917C528.345 273.766 527.936 272.538 527.709 271.271C528.064 271.317 528.424 271.346 528.778 271.369C528.888 271.375 529.004 271.381 529.115 271.387L529.156 271.389C529.545 271.406 529.931 271.311 530.268 271.114C530.604 270.917 530.876 270.627 531.052 270.279C531.227 269.931 531.298 269.54 531.256 269.153C531.215 268.765 531.062 268.398 530.816 268.096C530.663 267.907 530.51 267.719 530.357 267.531C530.125 267.241 529.887 266.957 529.655 266.666C529.628 266.639 529.603 266.61 529.579 266.579C529.312 266.248 529.045 265.923 528.778 265.592C529.265 264.835 529.921 264.201 530.694 263.74C533.371 262.172 537.063 263.258 538.997 265.679C539.903 266.942 540.519 268.39 540.801 269.918C541.083 271.447 541.024 273.019 540.628 274.522C539.966 277.096 538.87 279.539 537.388 281.745C537.534 281.931 537.685 282.111 537.83 282.297C540.483 285.709 542.796 289.372 544.735 293.236C544.263 288.908 544.826 284.53 546.376 280.462C547.948 276.671 550.894 273.478 553.488 270.2C554.174 269.32 555.105 268.663 556.165 268.312C557.224 267.961 558.364 267.931 559.44 268.228C560.516 268.525 561.48 269.134 562.21 269.978C562.94 270.823 563.403 271.864 563.541 272.972L563.557 273.117C563.172 273.334 562.795 273.565 562.426 273.809C561.962 274.119 561.603 274.561 561.395 275.079C561.187 275.596 561.141 276.164 561.261 276.708C561.382 277.253 561.664 277.748 562.071 278.129C562.478 278.51 562.99 278.76 563.541 278.845L563.598 278.853C563.46 280.242 563.218 281.618 562.872 282.97C561.87 286.744 560.099 290.27 557.67 293.327C555.241 296.385 552.207 298.907 548.757 300.737C548.531 300.853 548.31 300.969 548.083 301.08C550.031 306.6 551.253 312.35 551.718 318.185C551.981 321.627 551.966 325.086 551.672 328.526L551.689 328.404C552.432 324.578 554.473 321.127 557.466 318.632C561.912 314.98 568.193 313.635 572.99 310.699C573.499 310.372 574.092 310.197 574.698 310.196C575.303 310.194 575.897 310.366 576.408 310.691C576.92 311.016 577.327 311.48 577.584 312.029C577.84 312.578 577.934 313.189 577.854 313.789L577.834 313.917C577.119 314.208 576.423 314.544 575.75 314.922C575.365 315.139 574.987 315.37 574.618 315.614C574.155 315.923 573.796 316.366 573.588 316.883C573.38 317.401 573.334 317.969 573.454 318.513C573.575 319.058 573.857 319.553 574.264 319.934C574.671 320.315 575.183 320.565 575.734 320.65L575.791 320.658C575.831 320.664 575.866 320.67 575.907 320.676C574.685 323.593 572.97 326.277 570.838 328.613C568.204 331.439 565.02 333.698 561.481 335.251C557.943 336.803 554.125 337.617 550.261 337.641H550.255C549.206 342.199 547.686 346.636 545.72 350.88H529.521C529.463 350.7 529.411 350.514 529.358 350.334C530.858 350.428 532.363 350.338 533.841 350.067C532.639 348.592 531.437 347.106 530.235 345.631C530.208 345.603 530.183 345.574 530.16 345.544C529.55 344.789 528.934 344.04 528.325 343.285L528.325 343.284C528.292 340.97 528.558 338.662 529.115 336.416L529.115 336.416Z" fill="#F2F2F2"/>
<path id="Vector_23" d="M480.109 187.802C480.109 196.719 484.57 205.793 493.487 205.793C502.404 205.793 514.708 199.335 511.94 185.495C510.191 176.751 505.172 171.656 496.255 171.656C494.135 171.656 492.035 172.074 490.076 172.885C488.117 173.696 486.337 174.886 484.838 176.385C483.339 177.884 482.149 179.664 481.338 181.623C480.526 183.582 480.109 185.682 480.109 187.802V187.802Z" fill="#2F2E41"/>
<path id="Vector_24" d="M517.515 315.206C517.029 314.667 516.667 314.028 516.455 313.334C516.243 312.64 516.185 311.908 516.287 311.189C516.388 310.47 516.646 309.783 517.041 309.174C517.437 308.566 517.962 308.052 518.578 307.668L514.674 290.464L523.254 293.693L525.645 309.535C526.221 310.612 526.382 311.864 526.097 313.052C525.812 314.24 525.101 315.282 524.099 315.981C523.097 316.68 521.873 316.988 520.66 316.845C519.446 316.702 518.327 316.119 517.515 315.206L517.515 315.206Z" fill="#A0616A"/>
<path id="Vector_25" d="M499.303 254.227L505.292 254.837C505.292 254.837 503.726 263.708 506.175 265.707C508.624 267.705 507.637 267.695 507.623 269.176C507.697 270.239 507.995 271.275 508.497 272.215C508.998 273.156 509.691 273.98 510.532 274.635C512.493 276.135 516.57 302.847 516.57 302.847L525.455 302.932C525.19 300.635 525.213 298.313 525.522 296.021C526.048 292.57 528.712 283.878 527.739 282.388C526.765 280.897 527.278 278.156 527.306 275.195C527.335 272.233 523.097 275.505 523.145 270.569C523.192 265.632 517.757 234.657 518.294 230.219C518.83 225.781 513.438 221.779 513.438 221.779L508.501 221.732L499.303 254.227Z" fill="#E6E6E6"/>
<path id="Vector_26" d="M435.729 212.568C435.579 213.239 435.579 213.935 435.727 214.606C435.876 215.278 436.17 215.908 436.589 216.454C437.007 216.999 437.54 217.446 438.151 217.763C438.761 218.08 439.433 218.26 440.12 218.289L444.924 234.298L450.495 227.634L445.079 213.453C445.051 212.296 444.6 211.189 443.811 210.342C443.022 209.495 441.949 208.967 440.797 208.857C439.644 208.748 438.492 209.066 437.558 209.75C436.623 210.433 435.973 211.436 435.729 212.568V212.568Z" fill="#A0616A"/>
<path id="Vector_27" d="M486.448 217.782C486.448 217.782 474.834 213.428 468.538 237.275L460.179 245.932L453.157 233.243L454.085 230.233L448.658 217.929L439.353 223.269L441.644 231.716L441.257 235.892L443.48 238.489L447.12 251.913L449.397 256.298C449.397 256.298 452.269 261.913 457.281 262.838C458.617 263.089 459.985 263.127 461.333 262.953C464.539 262.452 467.511 260.968 469.838 258.707C476.036 253.18 481.897 247.288 487.391 241.061L486.448 217.782Z" fill="#E6E6E6"/>
<path id="Vector_28" d="M502.026 257.714L502.848 261.629L503.546 276.07L475.482 272.27L473.327 255.548L476.305 250.654L502.026 257.714Z" fill="#A0616A"/>
<path id="Vector_29" d="M492.923 205.56C500.258 205.56 506.205 199.613 506.205 192.278C506.205 184.942 500.258 178.995 492.923 178.995C485.587 178.995 479.64 184.942 479.64 192.278C479.64 199.613 485.587 205.56 492.923 205.56Z" fill="#A0616A"/>
<path id="Vector_30" d="M515.177 223.337C514.097 220.788 512.428 218.531 510.307 216.751C508.187 214.972 505.675 213.719 502.977 213.097L502.927 213.087L500.297 209.547L489.627 210.617L487.677 214.617L482.617 217.627H482.607L482.597 217.637L479.947 219.217L471.157 229.507L471.147 229.517C469.857 230.378 468.757 231.496 467.916 232.799C467.075 234.103 466.51 235.566 466.257 237.097C466.125 237.98 466.081 238.875 466.127 239.767C466.417 245.237 469.837 250.107 470.307 250.757L471.457 257.227L471.687 258.557L473.757 258.857L502.917 263.027L503.727 263.147L503.967 263.177L504.807 261.007V260.987L512.937 239.717L516.587 230.227C516.597 227.858 516.117 225.512 515.177 223.337V223.337Z" fill="#E6E6E6"/>
<path id="Vector_31" d="M506.823 195.76C506.703 195.741 506.582 195.715 506.462 195.696C504.39 195.329 502.318 194.968 500.253 194.594L500.063 189.912L497.56 194.106C491.851 196 486.51 194.93 481.486 192.566C479.829 191.78 478.221 190.893 476.671 189.912C475.59 183.316 478.317 178.119 485.319 177.455C485.537 177.435 485.693 177.253 485.883 177.158C485.884 177.158 485.885 177.157 485.886 177.157C485.886 177.157 485.887 177.156 485.888 177.156C485.888 177.155 485.889 177.154 485.889 177.154C485.889 177.153 485.889 177.152 485.889 177.151C486.213 176.999 486.542 176.853 486.871 176.72C489.451 175.712 492.263 175.457 494.982 175.984C497.701 176.511 500.214 177.799 502.23 179.698C504.275 181.779 505.767 184.339 506.569 187.145C507.372 189.95 507.459 192.912 506.823 195.76V195.76Z" fill="#2F2E41"/>
<path id="Vector_32" d="M519.907 302.877C519.32 298.953 518.355 295.095 517.027 291.357V291.347C515.916 288.186 514.53 285.127 512.887 282.207C512.886 282.207 512.885 282.207 512.883 282.206C512.882 282.206 512.881 282.205 512.88 282.204C512.879 282.203 512.878 282.202 512.878 282.201C512.877 282.2 512.877 282.198 512.877 282.197C510.512 277.795 507.426 273.82 503.747 270.437L503.357 270.027H503.257L475.097 269.337H474.807L474.487 269.327C474.487 269.327 474.367 269.677 474.137 270.337C474.128 270.378 474.115 270.419 474.097 270.457C474.017 270.717 473.917 271.017 473.797 271.347C473.727 271.567 473.647 271.797 473.567 272.047C473.477 272.317 473.377 272.597 473.277 272.897C472.497 275.227 471.357 278.607 469.957 282.797C469.747 283.437 469.527 284.097 469.297 284.787C463.957 300.857 455.367 327.117 447.867 352.007H474.467C477.047 344.547 479.787 333.907 479.787 333.907C480.857 332.637 480.797 329.187 480.797 329.187L489.157 320.407L495.177 352.007H520.437L520.627 316.837V316.537C520.824 311.971 520.583 307.397 519.907 302.877V302.877Z" fill="#CCCCCC"/>
<path id="Vector_33" d="M501.734 176.821V176.833C501.733 177.528 501.821 178.22 501.998 178.893C502.026 179.01 502.06 179.134 502.099 179.252V179.257C502.476 180.458 503.125 181.555 503.997 182.463C504.868 183.371 505.938 184.064 507.123 184.489C507.297 184.556 507.477 184.612 507.656 184.663C508.035 184.773 508.421 184.852 508.812 184.899C509.164 184.949 509.518 184.973 509.873 184.972C510.151 184.973 510.428 184.96 510.704 184.932C511.35 184.867 511.986 184.722 512.596 184.5C512.691 184.472 512.785 184.439 512.876 184.399C512.922 184.383 512.967 184.364 513.011 184.343C514.029 183.917 514.951 183.288 515.718 182.495C516.486 181.702 517.085 180.761 517.478 179.73C517.871 178.698 518.051 177.597 518.006 176.494C517.961 175.391 517.692 174.309 517.215 173.313L517.21 173.307C516.811 172.472 516.269 171.712 515.61 171.062C514.139 169.597 513.491 165.926 511.257 165.926C511.15 165.924 511.044 165.927 510.937 165.937C509.439 165.987 506.668 169.221 505.489 169.984C504.614 170.538 503.855 171.256 503.255 172.101C502.629 172.969 502.183 173.954 501.942 174.997C501.804 175.595 501.734 176.207 501.734 176.821V176.821Z" fill="#2F2E41"/>
<path id="Vector_34" d="M511.679 173.987C512.943 175.459 514.922 176.031 516.707 176.797C519.858 178.179 522.624 180.309 524.765 183.002C526.907 185.695 528.359 188.869 528.997 192.251C529.49 195.005 529.426 197.856 530.205 200.54C530.98 203.225 532.899 205.859 535.653 206.325C537.517 206.644 539.385 205.924 541.138 205.214C542.102 204.826 543.067 204.437 544.031 204.046C543.025 201.523 542.021 199 541.018 196.476C542.63 198.858 544.504 201.05 546.605 203.013C550.06 201.62 553.518 200.227 556.98 198.834C548.464 198.866 549.917 190.599 548.012 182.305C546.965 177.747 538.047 174.661 536.299 170.324C535.354 167.972 533.756 165.94 531.692 164.468C529.628 162.997 527.186 162.147 524.655 162.02C522.123 161.893 519.608 162.493 517.408 163.751C515.207 165.008 513.413 166.87 512.237 169.116C510.489 169.812 510.438 172.534 511.679 173.987Z" fill="#2F2E41"/>
<path id="Vector_35" d="M475.509 271.358C473.549 271.869 471.742 272.846 470.241 274.205C468.741 275.565 467.59 277.266 466.889 279.166C466.64 279.704 466.514 280.291 466.52 280.883C466.526 281.476 466.665 282.06 466.925 282.593C467.124 282.965 467.451 283.253 467.846 283.402C468.241 283.552 468.677 283.554 469.073 283.407C469.895 282.964 470.551 282.265 470.942 281.416C471.514 280.327 472.007 279.198 472.415 278.036C473.083 276.284 474.509 273.36 472.474 271.99C470.762 270.838 468.496 271.285 466.57 271.206C464.489 271.121 462.176 270.324 461.437 268.167C460.718 266.069 462.403 264.096 464.22 263.299C465.313 262.846 466.5 262.667 467.677 262.78C468.855 262.892 469.987 263.291 470.974 263.942C472.926 265.295 474.319 267.31 474.895 269.614C474.937 269.789 474.909 269.973 474.818 270.127C474.727 270.282 474.579 270.395 474.406 270.443C474.233 270.49 474.048 270.469 473.89 270.383C473.732 270.297 473.614 270.153 473.561 269.982C473.308 268.924 472.848 267.927 472.206 267.048C471.565 266.169 470.755 265.427 469.825 264.864C468.909 264.336 467.864 264.078 466.808 264.119C465.752 264.16 464.729 264.499 463.858 265.097C463.404 265.38 463.055 265.803 462.863 266.302C462.672 266.801 462.648 267.35 462.797 267.863C463.028 268.325 463.364 268.727 463.777 269.037C464.191 269.347 464.671 269.556 465.179 269.648C467.375 270.179 469.672 269.492 471.86 270.193C472.843 270.445 473.695 271.056 474.249 271.907C474.802 272.757 475.016 273.784 474.849 274.784C474.621 276.029 474.252 277.243 473.75 278.404C473.322 279.598 472.823 280.765 472.254 281.898C471.385 283.54 469.819 285.318 467.751 284.836C465.394 284.287 464.835 281.536 465.34 279.513C466.012 277.217 467.268 275.136 468.986 273.473C470.704 271.809 472.825 270.621 475.141 270.023C475.315 269.982 475.499 270.009 475.654 270.101C475.808 270.192 475.921 270.34 475.969 270.513C476.017 270.686 475.996 270.871 475.91 271.028C475.824 271.186 475.68 271.304 475.509 271.358L475.509 271.358Z" fill="#CCCCCC"/>
<path id="Vector_36" d="M579.547 353.007H415.547C413.691 353.005 411.912 352.267 410.6 350.954C409.288 349.642 408.549 347.863 408.547 346.007V123.007C408.549 121.151 409.287 119.372 410.6 118.059C411.912 116.747 413.691 116.009 415.547 116.007H579.547C581.403 116.009 583.182 116.747 584.495 118.059C585.807 119.372 586.545 121.151 586.547 123.007V346.007C586.545 347.863 585.807 349.642 584.495 350.954C583.182 352.267 581.403 353.005 579.547 353.007ZM415.547 118.007C414.222 118.008 412.951 118.536 412.013 119.473C411.076 120.41 410.549 121.681 410.547 123.007V346.007C410.549 347.332 411.076 348.603 412.013 349.541C412.951 350.478 414.222 351.005 415.547 351.007H579.547C580.873 351.005 582.144 350.478 583.081 349.541C584.018 348.603 584.546 347.332 584.547 346.007V123.007C584.546 121.681 584.018 120.41 583.081 119.473C582.144 118.536 580.873 118.008 579.547 118.007H415.547Z" fill="#556B2F"/>
<path id="Vector_37" d="M696 249.007H643C639.552 249.007 636.246 247.637 633.808 245.199C631.37 242.761 630 239.455 630 236.007C630 232.559 631.37 229.252 633.808 226.814C636.246 224.376 639.552 223.007 643 223.007H696C699.448 223.007 702.754 224.376 705.192 226.814C707.63 229.252 709 232.559 709 236.007C709 239.455 707.63 242.761 705.192 245.199C702.754 247.637 699.448 249.007 696 249.007Z" fill="#FA8072"/>
<path id="Vector_38" d="M514.909 230.653L514.88 232.653L617.299 234.133L617.328 232.133L514.909 230.653Z" fill="#556B2F"/>
<path id="Vector_39" d="M696 352.007H643C639.552 352.007 636.246 350.637 633.808 348.199C631.37 345.761 630 342.455 630 339.007C630 335.559 631.37 332.252 633.808 329.814C636.246 327.377 639.552 326.007 643 326.007H696C699.448 326.007 702.754 327.377 705.192 329.814C707.63 332.252 709 335.559 709 339.007C709 342.455 707.63 345.761 705.192 348.199C702.754 350.637 699.448 352.007 696 352.007V352.007Z" fill="#FA8072"/>
<path id="Vector_40" d="M514.909 333.653L514.88 335.653L617.299 337.133L617.328 335.133L514.909 333.653Z" fill="#556B2F"/>
<path id="Vector_41" d="M510.61 237.079C509.379 237.082 508.191 236.631 507.271 235.814C506.351 234.996 505.764 233.869 505.623 232.646C505.481 231.424 505.794 230.192 506.503 229.186C507.211 228.18 508.266 227.47 509.464 227.191C510.663 226.912 511.922 227.085 513.002 227.675C514.082 228.266 514.906 229.233 515.318 230.393C515.73 231.552 515.701 232.823 515.236 233.963C514.771 235.102 513.902 236.03 512.797 236.57C512.116 236.903 511.368 237.077 510.61 237.079V237.079ZM510.603 229.074C509.951 229.074 509.317 229.286 508.796 229.679C508.276 230.071 507.897 230.622 507.717 231.249C507.537 231.875 507.566 232.543 507.8 233.152C508.033 233.761 508.459 234.277 509.011 234.622C509.564 234.968 510.214 235.124 510.864 235.068C511.513 235.011 512.127 234.744 512.611 234.308C513.096 233.872 513.425 233.29 513.55 232.65C513.674 232.01 513.587 231.347 513.302 230.761V230.761C513.055 230.255 512.671 229.829 512.194 229.531C511.717 229.233 511.165 229.075 510.603 229.074V229.074Z" fill="#556B2F"/>
</g>
<path id="Vector_42" d="M510.609 340.078C509.716 340.079 508.839 339.841 508.07 339.388C507.3 338.936 506.665 338.285 506.232 337.505C505.799 336.724 505.582 335.842 505.605 334.949C505.628 334.056 505.889 333.186 506.362 332.429C506.835 331.671 507.502 331.054 508.294 330.642C509.085 330.229 509.973 330.036 510.865 330.083C511.757 330.129 512.62 330.414 513.364 330.906C514.109 331.399 514.708 332.082 515.099 332.885V332.885C515.47 333.647 515.641 334.491 515.597 335.337C515.552 336.184 515.294 337.005 514.845 337.724C514.396 338.443 513.772 339.036 513.031 339.448C512.29 339.86 511.457 340.077 510.609 340.078V340.078ZM510.603 332.074C509.951 332.074 509.317 332.286 508.796 332.679C508.275 333.071 507.896 333.622 507.717 334.248C507.537 334.875 507.566 335.543 507.799 336.152C508.033 336.761 508.458 337.277 509.011 337.622C509.563 337.968 510.214 338.124 510.863 338.068C511.513 338.011 512.126 337.745 512.611 337.309C513.095 336.873 513.425 336.291 513.549 335.651C513.674 335.011 513.587 334.348 513.302 333.762C513.055 333.256 512.671 332.83 512.194 332.532C511.717 332.233 511.166 332.075 510.603 332.074V332.074Z" fill="#556B2F"/>
</g>
<g id="others">
<path id="Vector_43" d="M605.61 34.4842H140.317C139.844 34.4741 139.395 34.2794 139.064 33.9417C138.734 33.6039 138.548 33.1502 138.548 32.6776C138.548 32.205 138.734 31.7512 139.064 31.4135C139.395 31.0758 139.844 30.8811 140.317 30.871H605.61C606.082 30.8811 606.532 31.0758 606.863 31.4135C607.193 31.7512 607.378 32.205 607.378 32.6776C607.378 33.1502 607.193 33.6039 606.863 33.9417C606.532 34.2794 606.082 34.4741 605.61 34.4842Z" fill="#CACACA"/>
<path id="Vector_44" d="M171.241 21.6469C177.089 21.6469 181.829 16.8011 181.829 10.8235C181.829 4.84582 177.089 0 171.241 0C165.394 0 160.654 4.84582 160.654 10.8235C160.654 16.8011 165.394 21.6469 171.241 21.6469Z" fill="#556B2F"/>
<path id="Vector_45" d="M207.816 21.6469C213.664 21.6469 218.404 16.8011 218.404 10.8235C218.404 4.84582 213.664 0 207.816 0C201.969 0 197.229 4.84582 197.229 10.8235C197.229 16.8011 201.969 21.6469 207.816 21.6469Z" fill="#556B2F"/>
<path id="Vector_46" d="M244.391 21.6469C250.239 21.6469 254.979 16.8011 254.979 10.8235C254.979 4.84582 250.239 0 244.391 0C238.544 0 233.804 4.84582 233.804 10.8235C233.804 16.8011 238.544 21.6469 244.391 21.6469Z" fill="#556B2F"/>
<path id="Vector_47" d="M583.589 2.68269H557.608C557.093 2.69288 556.602 2.90463 556.242 3.27245C555.881 3.64026 555.679 4.13482 555.679 4.64992C555.679 5.16502 555.881 5.65959 556.242 6.0274C556.602 6.39522 557.093 6.60695 557.608 6.61714H583.589C584.104 6.60695 584.594 6.39522 584.955 6.0274C585.315 5.65959 585.517 5.16502 585.517 4.64992C585.517 4.13482 585.315 3.64026 584.955 3.27245C584.594 2.90463 584.104 2.69288 583.589 2.68269V2.68269Z" fill="#556B2F"/>
<path id="Vector_48" d="M583.589 10.0671H557.608C557.093 10.0773 556.602 10.289 556.242 10.6568C555.881 11.0246 555.679 11.5192 555.679 12.0343C555.679 12.5494 555.881 13.044 556.242 13.4118C556.602 13.7796 557.093 13.9913 557.608 14.0015H583.589C584.104 13.9913 584.594 13.7796 584.955 13.4118C585.315 13.044 585.517 12.5494 585.517 12.0343C585.517 11.5192 585.315 11.0246 584.955 10.6568C584.594 10.289 584.104 10.0773 583.589 10.0671V10.0671Z" fill="#556B2F"/>
<path id="Vector_49" d="M583.589 17.4418H557.608C557.093 17.452 556.602 17.6638 556.242 18.0316C555.881 18.3994 555.679 18.8939 555.679 19.409C555.679 19.9241 555.881 20.4186 556.242 20.7864C556.602 21.1542 557.093 21.366 557.608 21.3762H583.589C584.104 21.366 584.594 21.1542 584.955 20.7864C585.315 20.4186 585.517 19.9241 585.517 19.409C585.517 18.8939 585.315 18.3994 584.955 18.0316C584.594 17.6638 584.104 17.452 583.589 17.4418Z" fill="#556B2F"/>
<path id="Vector_50" d="M378.97 351.886C379.635 351.352 380.175 350.681 380.555 349.918C380.934 349.155 381.143 348.319 381.168 347.467C381.193 346.616 381.032 345.769 380.697 344.985C380.362 344.202 379.861 343.501 379.228 342.93L388.753 315.198L381.73 310.677L370.658 343.698C369.777 344.834 369.343 346.255 369.438 347.689C369.534 349.124 370.153 350.474 371.177 351.484C372.202 352.493 373.561 353.091 374.997 353.165C376.434 353.24 377.847 352.784 378.97 351.886H378.97Z" fill="#FFB6B6"/>
<path id="Vector_51" d="M387.098 275.369C385.416 282.485 382.905 288.701 383.245 291.686C383.582 294.663 379.944 297.524 381.1 299.877C382.254 302.236 378.702 302.488 379.662 306.285C380.626 310.09 381.253 310.903 380.439 311.53C379.619 312.153 375.29 326.675 375.29 326.675L377.829 327.606L385.24 330.309L402.654 301.667L402.601 266.51L398.277 266.371C397.239 266.76 396.089 267.227 394.943 267.79C391.44 269.481 387.897 271.98 387.098 275.369Z" fill="#FA8072"/>
<path id="Vector_52" d="M451.224 498.447H460.28L464.588 463.518H451.222L451.224 498.447Z" fill="#FFB6B6"/>
<path id="Vector_53" d="M463.293 499.263V493.123L460.912 493.269L451.221 493.843L448.978 493.981L447.264 514.542L447.172 515.644H453.602L453.809 514.549L454.742 509.574L457.154 514.549L457.682 515.644H474.729C475.744 515.637 476.715 515.231 477.431 514.513C478.148 513.795 478.552 512.823 478.557 511.809C479.276 508.448 465.1 501.184 463.293 499.263Z" fill="#2F2E41"/>
<path id="Vector_54" d="M345.131 488.59L353.008 493.059L373.992 464.805L362.367 458.21L345.131 488.59Z" fill="#FFB6B6"/>
<path id="Vector_55" d="M355.23 495.251L358.254 489.916L356.126 488.867L347.407 484.588L345.386 483.593L335.458 498.13L333.123 501.544L335.764 503.044L338.711 504.72L342.707 500.005L342.263 506.734L356.187 514.641H356.194L357.09 515.146C357.974 515.646 359.021 515.774 360 515.503C360.978 515.232 361.81 514.583 362.311 513.7C364.592 511.128 355.85 497.823 355.23 495.251Z" fill="#2F2E41"/>
<path id="Vector_56" d="M406.283 326.987C394.148 335.028 382.136 412.285 385.288 411.024L356.686 464.329L371.305 474.213L424.166 389.632L441.737 427.049L448.994 484.481L467.196 483.181C462.466 418.479 450.657 350.239 440.871 323.843L406.283 326.987Z" fill="#556B2F"/>
<path id="Vector_57" d="M397.07 332.725L396.938 333.221C409.767 340.359 444.882 332.091 444.882 332.091L439.222 313.855L446.863 273.342C446.853 271.719 446.509 270.115 445.853 268.631C445.197 267.146 444.243 265.812 443.05 264.712C441.857 263.611 440.451 262.768 438.918 262.234C437.386 261.7 435.76 261.486 434.141 261.607L424.922 254.778L411.798 255.23L403.019 264.927L397.774 266.801L393.699 268.254C392.875 268.996 391.976 269.851 391.115 270.795L397.56 309.155L400.302 320.625L397.07 332.725Z" fill="#FA8072"/>
<path id="Vector_58" d="M418.373 253.256C427.673 253.256 435.212 245.717 435.212 236.417C435.212 227.117 427.673 219.577 418.373 219.577C409.072 219.577 401.533 227.117 401.533 236.417C401.533 245.717 409.072 253.256 418.373 253.256Z" fill="#FFB6B6"/>
<path id="Vector_59" d="M396.231 230.551C396.281 230.57 396.325 230.589 396.375 230.608C396.471 230.65 396.57 230.686 396.671 230.715C397.313 230.951 397.982 231.105 398.663 231.173C398.953 231.204 399.245 231.22 399.537 231.219C399.912 231.221 400.286 231.196 400.657 231.147C401.069 231.096 401.478 231.013 401.877 230.898C402.067 230.847 402.254 230.787 402.437 230.717C403.688 230.273 404.818 229.545 405.739 228.591C406.66 227.636 407.347 226.481 407.746 225.216V225.209C407.789 225.086 407.825 224.96 407.854 224.832C408.041 224.124 408.136 223.396 408.136 222.663V222.651C408.141 220.866 407.585 219.124 406.545 217.673C405.919 216.784 405.195 216.636 405.601 215.62C406.896 212.38 401.597 209.731 398.468 211.156C398.356 211.145 398.242 211.141 398.129 211.143C396.022 211.137 395.241 214.248 393.985 215.999L394.021 216.011C394.339 216.123 394.615 216.331 394.809 216.606C395.003 216.882 395.106 217.211 395.104 217.548C395.101 217.885 394.994 218.213 394.796 218.485C394.598 218.758 394.32 218.962 394.001 219.07C393.165 219.342 392.32 219.583 391.466 219.791C388.651 223.116 391.878 232.842 396.231 230.551Z" fill="#2F2E41"/>
<path id="Vector_60" d="M397.781 239.465C398.581 243.067 400.502 246.324 403.266 248.768C406.115 251.07 419.515 256.525 420.646 251.855C419.89 255.117 420.345 256.363 421.562 257.53C421.771 257.247 421.991 256.978 422.219 256.714C423.055 255.75 424.058 254.946 425.18 254.338C425.209 256.308 425.068 258.277 424.757 260.223C425.258 260.686 425.735 261.174 426.187 261.686C428.354 255.227 433.104 247.49 429.665 241.609C428.3 239.275 429.438 238.955 430.647 238.687C432.757 238.219 433.921 229.558 434.423 227.453C435.046 224.813 435.293 221.776 433.657 219.609C432.021 217.441 427.884 217.349 427.047 219.932L425.305 217.563C423.053 212.608 417.077 213.599 411.673 214.239C408.974 214.648 406.415 215.709 404.219 217.329C402.022 218.95 400.253 221.082 399.066 223.54C396.746 228.524 396.29 234.174 397.781 239.465Z" fill="#2F2E41"/>
<path id="Vector_61" d="M406.299 216.832C406.414 219.82 405.648 222.776 404.097 225.332C402.545 227.888 400.277 229.932 397.574 231.209C396.476 231.707 395.52 230.079 396.625 229.578C399.041 228.464 401.071 226.657 402.457 224.386C403.844 222.116 404.524 219.485 404.413 216.827C404.35 215.614 406.236 215.623 406.299 216.832V216.832Z" fill="#556B2F"/>
<path id="Vector_62" d="M482.355 226.148C481.534 226.376 480.772 226.78 480.123 227.331C479.473 227.882 478.951 228.568 478.592 229.341C478.233 230.114 478.047 230.955 478.045 231.807C478.044 232.659 478.228 233.502 478.584 234.276L458.888 255.998L463.557 262.923L486.761 236.952C488.02 236.256 488.979 235.122 489.457 233.766C489.936 232.409 489.9 230.925 489.357 229.593C488.814 228.261 487.801 227.175 486.51 226.54C485.22 225.905 483.741 225.766 482.355 226.148V226.148Z" fill="#FFB6B6"/>
<path id="Vector_63" d="M426.37 296.621C426.37 296.621 440.338 299.13 444.692 293.25C449.045 287.369 453.805 282.652 454.671 279.778C455.537 276.904 460.007 275.716 459.875 273.095C459.742 270.473 463.109 271.644 463.723 267.772C464.336 263.9 464.084 262.902 465.082 262.649C466.08 262.397 475.784 250.765 475.784 250.765L468.078 243.499L440.776 262.945L426.37 296.621Z" fill="#FA8072"/>
<path id="Vector_64" d="M250.438 515.248C250.438 515.404 250.468 515.559 250.528 515.703C250.587 515.848 250.675 515.979 250.786 516.09C250.896 516.201 251.028 516.288 251.172 516.348C251.317 516.408 251.472 516.438 251.628 516.438H541.918C542.234 516.438 542.537 516.312 542.76 516.089C542.983 515.866 543.108 515.563 543.108 515.248C543.108 514.932 542.983 514.629 542.76 514.406C542.537 514.183 542.234 514.058 541.918 514.058H251.628C251.472 514.057 251.317 514.088 251.172 514.147C251.028 514.207 250.896 514.294 250.786 514.405C250.675 514.516 250.587 514.647 250.528 514.792C250.468 514.936 250.438 515.091 250.438 515.248V515.248Z" fill="#CCCCCC"/>
</g>
</g>
<defs>
<clipPath id="clip0_0_1">
<rect width="709" height="516.438" fill="white"/>
</clipPath>
</defs>
</svg>
