<svg width="344" height="290" viewBox="0 0 344 333" fill="none" xmlns="http://www.w3.org/2000/svg">
<path id="Vector" d="M236.732 26.052C260.056 39.856 281 57.468 303.372 79.84C325.744 102.212 350.02 129.344 341.452 151.24C333.36 173.136 292.424 190.272 276.24 223.592C260.056 256.436 268.148 305.464 253.392 323.076C238.16 341.164 200.08 327.836 166.76 320.22C132.964 312.128 103.928 309.748 77.272 298.8C50.616 287.376 25.864 267.86 19.2 242.632C12.06 217.88 22.056 186.94 17.772 153.62C13.488 120.3 -5.55201 84.124 2.53999 60.324C10.156 36.048 44.428 23.672 75.368 14.628C106.308 5.58401 133.916 -0.60399 161.048 1.30001C187.704 3.20401 213.408 12.724 236.732 26.052Z" fill="url(#paint0_linear_1_3)"/>
<defs>
<linearGradient id="paint0_linear_1_3" x1="0.559395" y1="332.132" x2="331.544" y2="-10.3245" gradientUnits="userSpaceOnUse">
<stop stop-color="#E6F7C8" stop-opacity="0.35"/>
<stop offset="1" stop-color="#FFEDEB" stop-opacity="0.9"/>
</linearGradient>
</defs>
</svg>
